<mxfile host="app.diagrams.net" modified="2023-04-24T11:42:20.626Z" agent="Mozilla/5.0 (Windows NT 10.0; Win64; x64) AppleWebKit/537.36 (KHTML, like Gecko) Chrome/111.0.0.0 Safari/537.36" etag="jMVFFMJ8NvREaabwF6WC" version="21.2.1" type="device">
  <diagram name="Page-1" id="sf8JOwjCXrXif8BEMp1B">
    <mxGraphModel dx="1434" dy="1896" grid="1" gridSize="10" guides="1" tooltips="1" connect="1" arrows="1" fold="1" page="1" pageScale="1" pageWidth="850" pageHeight="1100" math="0" shadow="0">
      <root>
        <mxCell id="0" />
        <mxCell id="1" parent="0" />
        <mxCell id="QIx4C-68j_raQrRl_7Mb-1" value="Администратор" style="shape=umlActor;verticalLabelPosition=bottom;verticalAlign=top;html=1;outlineConnect=0;" vertex="1" parent="1">
          <mxGeometry x="410" y="130" width="30" height="60" as="geometry" />
        </mxCell>
        <mxCell id="QIx4C-68j_raQrRl_7Mb-6" value="Пользователь" style="shape=umlActor;verticalLabelPosition=bottom;verticalAlign=top;html=1;outlineConnect=0;" vertex="1" parent="1">
          <mxGeometry x="410" y="290" width="30" height="60" as="geometry" />
        </mxCell>
        <mxCell id="QIx4C-68j_raQrRl_7Mb-8" value="" style="endArrow=block;html=1;rounded=0;endFill=0;entryX=0.5;entryY=0;entryDx=0;entryDy=0;entryPerimeter=0;" edge="1" parent="1" target="QIx4C-68j_raQrRl_7Mb-6">
          <mxGeometry width="50" height="50" relative="1" as="geometry">
            <mxPoint x="425" y="210" as="sourcePoint" />
            <mxPoint x="425" y="220" as="targetPoint" />
          </mxGeometry>
        </mxCell>
        <mxCell id="QIx4C-68j_raQrRl_7Mb-11" value="Добавление выставки" style="ellipse;whiteSpace=wrap;html=1;" vertex="1" parent="1">
          <mxGeometry x="530" y="170" width="100" height="50" as="geometry" />
        </mxCell>
        <mxCell id="QIx4C-68j_raQrRl_7Mb-13" value="" style="endArrow=classic;html=1;rounded=0;exitX=0.75;exitY=0.1;exitDx=0;exitDy=0;exitPerimeter=0;entryX=0;entryY=0.5;entryDx=0;entryDy=0;" edge="1" parent="1" source="QIx4C-68j_raQrRl_7Mb-1" target="QIx4C-68j_raQrRl_7Mb-11">
          <mxGeometry width="50" height="50" relative="1" as="geometry">
            <mxPoint x="460" y="180" as="sourcePoint" />
            <mxPoint x="510" y="130" as="targetPoint" />
          </mxGeometry>
        </mxCell>
        <mxCell id="QIx4C-68j_raQrRl_7Mb-14" value="" style="endArrow=classic;html=1;rounded=0;exitX=0.75;exitY=0.1;exitDx=0;exitDy=0;exitPerimeter=0;entryX=0;entryY=0.5;entryDx=0;entryDy=0;" edge="1" parent="1" source="QIx4C-68j_raQrRl_7Mb-1" target="QIx4C-68j_raQrRl_7Mb-15">
          <mxGeometry width="50" height="50" relative="1" as="geometry">
            <mxPoint x="520" y="190" as="sourcePoint" />
            <mxPoint x="490" y="160" as="targetPoint" />
          </mxGeometry>
        </mxCell>
        <mxCell id="QIx4C-68j_raQrRl_7Mb-15" value="Удаление выставки" style="ellipse;whiteSpace=wrap;html=1;" vertex="1" parent="1">
          <mxGeometry x="520" y="100" width="80" height="50" as="geometry" />
        </mxCell>
        <mxCell id="QIx4C-68j_raQrRl_7Mb-16" value="Редактирование выставки" style="ellipse;whiteSpace=wrap;html=1;" vertex="1" parent="1">
          <mxGeometry x="460" y="30" width="120" height="50" as="geometry" />
        </mxCell>
        <mxCell id="QIx4C-68j_raQrRl_7Mb-17" value="Принудительная архивация выставки" style="ellipse;whiteSpace=wrap;html=1;" vertex="1" parent="1">
          <mxGeometry x="430" y="-30" width="150" height="50" as="geometry" />
        </mxCell>
        <mxCell id="QIx4C-68j_raQrRl_7Mb-18" value="" style="endArrow=classic;html=1;rounded=0;exitX=0.5;exitY=0;exitDx=0;exitDy=0;exitPerimeter=0;entryX=0.083;entryY=0.78;entryDx=0;entryDy=0;entryPerimeter=0;" edge="1" parent="1" source="QIx4C-68j_raQrRl_7Mb-1" target="QIx4C-68j_raQrRl_7Mb-16">
          <mxGeometry width="50" height="50" relative="1" as="geometry">
            <mxPoint x="443" y="146" as="sourcePoint" />
            <mxPoint x="505" y="113" as="targetPoint" />
          </mxGeometry>
        </mxCell>
        <mxCell id="QIx4C-68j_raQrRl_7Mb-19" value="" style="endArrow=classic;html=1;rounded=0;entryX=0;entryY=0.5;entryDx=0;entryDy=0;" edge="1" parent="1" target="QIx4C-68j_raQrRl_7Mb-17">
          <mxGeometry width="50" height="50" relative="1" as="geometry">
            <mxPoint x="420" y="130" as="sourcePoint" />
            <mxPoint x="466" y="14" as="targetPoint" />
          </mxGeometry>
        </mxCell>
        <mxCell id="QIx4C-68j_raQrRl_7Mb-23" value="Авторизация в системе управления контентом" style="ellipse;whiteSpace=wrap;html=1;" vertex="1" parent="1">
          <mxGeometry x="660" y="-10" width="130" height="60" as="geometry" />
        </mxCell>
        <mxCell id="QIx4C-68j_raQrRl_7Mb-24" value="include" style="endArrow=classic;html=1;rounded=0;exitX=1;exitY=0.5;exitDx=0;exitDy=0;dashed=1;entryX=0.046;entryY=0.267;entryDx=0;entryDy=0;entryPerimeter=0;" edge="1" parent="1" source="QIx4C-68j_raQrRl_7Mb-17" target="QIx4C-68j_raQrRl_7Mb-23">
          <mxGeometry x="-0.089" y="12" width="50" height="50" relative="1" as="geometry">
            <mxPoint x="620" y="-20" as="sourcePoint" />
            <mxPoint x="670" y="10" as="targetPoint" />
            <mxPoint as="offset" />
          </mxGeometry>
        </mxCell>
        <mxCell id="QIx4C-68j_raQrRl_7Mb-25" value="include" style="endArrow=classic;html=1;rounded=0;exitX=1;exitY=0.5;exitDx=0;exitDy=0;dashed=1;" edge="1" parent="1" source="QIx4C-68j_raQrRl_7Mb-16">
          <mxGeometry x="-0.089" y="12" width="50" height="50" relative="1" as="geometry">
            <mxPoint x="590" y="10" as="sourcePoint" />
            <mxPoint x="670" y="30" as="targetPoint" />
            <mxPoint as="offset" />
          </mxGeometry>
        </mxCell>
        <mxCell id="QIx4C-68j_raQrRl_7Mb-26" value="include" style="endArrow=classic;html=1;rounded=0;exitX=1.01;exitY=0.38;exitDx=0;exitDy=0;dashed=1;exitPerimeter=0;entryX=0.354;entryY=0.983;entryDx=0;entryDy=0;entryPerimeter=0;" edge="1" parent="1" source="QIx4C-68j_raQrRl_7Mb-11" target="QIx4C-68j_raQrRl_7Mb-23">
          <mxGeometry x="-0.089" y="12" width="50" height="50" relative="1" as="geometry">
            <mxPoint x="600" y="20" as="sourcePoint" />
            <mxPoint x="680" y="45" as="targetPoint" />
            <mxPoint as="offset" />
          </mxGeometry>
        </mxCell>
        <mxCell id="QIx4C-68j_raQrRl_7Mb-27" value="include" style="endArrow=classic;html=1;rounded=0;exitX=0.95;exitY=0.26;exitDx=0;exitDy=0;entryX=0;entryY=1;entryDx=0;entryDy=0;dashed=1;exitPerimeter=0;" edge="1" parent="1" source="QIx4C-68j_raQrRl_7Mb-15" target="QIx4C-68j_raQrRl_7Mb-23">
          <mxGeometry x="-0.089" y="12" width="50" height="50" relative="1" as="geometry">
            <mxPoint x="610" y="30" as="sourcePoint" />
            <mxPoint x="690" y="55" as="targetPoint" />
            <mxPoint as="offset" />
          </mxGeometry>
        </mxCell>
        <mxCell id="QIx4C-68j_raQrRl_7Mb-28" value="Просмотр текущих и предстоящих выставок" style="ellipse;whiteSpace=wrap;html=1;" vertex="1" parent="1">
          <mxGeometry x="210" y="240" width="150" height="50" as="geometry" />
        </mxCell>
        <mxCell id="QIx4C-68j_raQrRl_7Mb-30" value="" style="endArrow=classic;html=1;rounded=0;exitX=0.25;exitY=0.1;exitDx=0;exitDy=0;exitPerimeter=0;entryX=1;entryY=0.5;entryDx=0;entryDy=0;" edge="1" parent="1" source="QIx4C-68j_raQrRl_7Mb-6" target="QIx4C-68j_raQrRl_7Mb-28">
          <mxGeometry width="50" height="50" relative="1" as="geometry">
            <mxPoint x="310" y="360" as="sourcePoint" />
            <mxPoint x="360" y="310" as="targetPoint" />
          </mxGeometry>
        </mxCell>
        <mxCell id="QIx4C-68j_raQrRl_7Mb-31" value="Просмотр архива выставок" style="ellipse;whiteSpace=wrap;html=1;" vertex="1" parent="1">
          <mxGeometry x="190" y="310" width="120" height="40" as="geometry" />
        </mxCell>
        <mxCell id="QIx4C-68j_raQrRl_7Mb-32" value="" style="endArrow=classic;html=1;rounded=0;exitX=0.25;exitY=0.1;exitDx=0;exitDy=0;exitPerimeter=0;entryX=1;entryY=0.5;entryDx=0;entryDy=0;" edge="1" parent="1" source="QIx4C-68j_raQrRl_7Mb-6" target="QIx4C-68j_raQrRl_7Mb-31">
          <mxGeometry width="50" height="50" relative="1" as="geometry">
            <mxPoint x="330" y="440" as="sourcePoint" />
            <mxPoint x="380" y="390" as="targetPoint" />
          </mxGeometry>
        </mxCell>
        <mxCell id="QIx4C-68j_raQrRl_7Mb-33" value="Поиск выставок" style="ellipse;whiteSpace=wrap;html=1;" vertex="1" parent="1">
          <mxGeometry x="250" y="370" width="120" height="40" as="geometry" />
        </mxCell>
        <mxCell id="QIx4C-68j_raQrRl_7Mb-34" value="" style="endArrow=classic;html=1;rounded=0;exitX=0.25;exitY=0.1;exitDx=0;exitDy=0;exitPerimeter=0;entryX=0.783;entryY=0.125;entryDx=0;entryDy=0;entryPerimeter=0;" edge="1" parent="1" source="QIx4C-68j_raQrRl_7Mb-6" target="QIx4C-68j_raQrRl_7Mb-33">
          <mxGeometry width="50" height="50" relative="1" as="geometry">
            <mxPoint x="380" y="450" as="sourcePoint" />
            <mxPoint x="430" y="400" as="targetPoint" />
          </mxGeometry>
        </mxCell>
        <mxCell id="QIx4C-68j_raQrRl_7Mb-35" value="Заполнение обязательных данных" style="ellipse;whiteSpace=wrap;html=1;" vertex="1" parent="1">
          <mxGeometry x="690" y="190" width="120" height="50" as="geometry" />
        </mxCell>
        <mxCell id="QIx4C-68j_raQrRl_7Mb-36" value="include" style="endArrow=classic;html=1;rounded=0;exitX=1;exitY=0.5;exitDx=0;exitDy=0;dashed=1;entryX=0;entryY=0.5;entryDx=0;entryDy=0;" edge="1" parent="1" source="QIx4C-68j_raQrRl_7Mb-11" target="QIx4C-68j_raQrRl_7Mb-35">
          <mxGeometry x="-0.089" y="12" width="50" height="50" relative="1" as="geometry">
            <mxPoint x="641" y="199" as="sourcePoint" />
            <mxPoint x="716" y="59" as="targetPoint" />
            <mxPoint as="offset" />
          </mxGeometry>
        </mxCell>
      </root>
    </mxGraphModel>
  </diagram>
</mxfile>
